<?xml version="1.0" encoding="utf-8"?>
<!-- Generator: Adobe Illustrator 24.0.0, SVG Export Plug-In . SVG Version: 6.00 Build 0)  -->
<svg version="1.1" id="Capa_1" xmlns="http://www.w3.org/2000/svg" xmlns:xlink="http://www.w3.org/1999/xlink" x="0px" y="0px"
	 viewBox="0 0 300 59" style="enable-background:new 0 0 300 59;" xml:space="preserve">
<style type="text/css">
	.st0{fill:#1D5B79;}
	.st1{fill:#2EC0BB;}
</style>
<g>
	<rect x="333.7" y="-11.5" class="st0" width="14.6" height="14.6"/>
	<rect x="319.1" y="3.1" class="st1" width="14.6" height="14.6"/>
	<rect x="348.3" y="3.1" class="st1" width="14.6" height="14.6"/>
	<rect x="304.5" y="17.7" class="st0" width="14.6" height="14.6"/>
	<rect x="362.9" y="17.7" class="st0" width="14.6" height="14.6"/>
	<rect x="319.1" y="32.3" class="st1" width="14.6" height="14.6"/>
	<rect x="348.3" y="32.3" class="st1" width="14.6" height="14.6"/>
	<rect x="333.7" y="46.9" class="st0" width="14.6" height="14.6"/>
</g>
<g>
	<g>
		<rect x="22" y="5.8" class="st0" width="9.5" height="9.5"/>
		<rect x="12.5" y="15.3" class="st1" width="9.5" height="9.5"/>
		<rect x="31.5" y="15.3" class="st1" width="9.5" height="9.5"/>
		<rect x="3" y="24.8" class="st0" width="9.5" height="9.5"/>
		<rect x="41" y="24.8" class="st0" width="9.5" height="9.5"/>
		<rect x="12.5" y="34.2" class="st1" width="9.5" height="9.5"/>
		<rect x="31.5" y="34.2" class="st1" width="9.5" height="9.5"/>
		<rect x="22" y="43.7" class="st0" width="9.5" height="9.5"/>
	</g>
	<g>
		<path class="st1" d="M64.7,36.8V18H76v1.8h-9.2v7.3h7.8V29h-7.8v7.8H64.7z"/>
		<path class="st1" d="M76.4,36.8L81.6,18h4.6l5.2,18.8h-2.1l-1.4-4.8h-8l-1.4,4.8H76.4z M83.2,19.7l-2.9,10.3h7.1l-2.9-10.3H83.2z"
			/>
		<path class="st1" d="M96.4,29.6v7.2h-2.1V18h7c2,0,3.5,0.5,4.5,1.4c1,0.9,1.5,2.4,1.5,4.3c0,2.9-1.2,4.7-3.5,5.5l3.6,7.6h-2.3
			l-3.4-7.2H96.4z M101.3,27.7c2.6,0,3.8-1.3,3.8-4s-1.3-4-3.9-4h-4.9v7.9H101.3z"/>
		<path class="st1" d="M111.1,36.8V18h3.8l5.3,15.9l5.3-15.9h3.8v18.8h-2.1V20.2h-0.4l-5.5,15.9H119l-5.5-15.9h-0.4v16.6H111.1z"/>
		<path class="st1" d="M132.2,36.8l5.2-18.8h4.6l5.2,18.8h-2.1l-1.4-4.8h-8l-1.4,4.8H132.2z M139,19.7l-2.9,10.3h7.1l-2.9-10.3H139z
			"/>
		<path class="st1" d="M161.1,36.5c-1.9,0.4-3.5,0.6-5,0.6c-1.5,0-2.7-0.2-3.6-0.6c-0.9-0.4-1.6-1-2.1-1.9c-0.5-0.9-0.8-1.8-1-3
			c-0.2-1.1-0.3-2.5-0.3-4.2s0.1-3.1,0.3-4.2c0.2-1.1,0.5-2.1,1-3c0.5-0.9,1.2-1.5,2.1-1.9c0.9-0.4,2.1-0.6,3.5-0.6
			c1.5,0,3.2,0.2,5.1,0.6l-0.1,1.8c-1.8-0.3-3.5-0.5-4.9-0.5c-2,0-3.3,0.6-4,1.8c-0.6,1.2-1,3.2-1,6.1c0,1.4,0.1,2.6,0.2,3.5
			c0.1,0.9,0.3,1.7,0.7,2.4c0.3,0.7,0.8,1.2,1.5,1.5c0.7,0.3,1.6,0.4,2.9,0.4c1.3,0,2.8-0.2,4.5-0.5L161.1,36.5z"/>
		<path class="st1" d="M164.6,36.8V18h2.1v18.8H164.6z"/>
		<path class="st1" d="M169.6,36.8l5.2-18.8h4.6l5.2,18.8h-2.1l-1.4-4.8h-8l-1.4,4.8H169.6z M176.3,19.7l-2.9,10.3h7.1l-2.9-10.3
			H176.3z"/>
		<path class="st0" d="M192.3,21.5v-3.3h12.2v3.3L196.8,33v0.5h7.7v3.3h-12.2v-3.2L200,22v-0.5H192.3z"/>
		<path class="st0" d="M211.2,30.6c0,2.2,1.1,3.2,3.3,3.2c2.2,0,3.3-1.1,3.3-3.2V18.3h3.8v12.2c0,2.3-0.6,3.9-1.8,5
			c-1.2,1.1-2.9,1.6-5.3,1.6c-2.4,0-4.1-0.5-5.3-1.6c-1.2-1.1-1.8-2.7-1.8-5V18.3h3.8V30.6z"/>
		<path class="st0" d="M235.9,36.8h-10.5V18.3h3.8v15.2h6.8V36.8z"/>
		<path class="st0" d="M238.2,36.8V18.3h6.4l3.3,13.5l3.3-13.5h6.4v18.5h-3.8V22.5h-0.4L249.8,36H246l-3.6-13.5H242v14.3H238.2z"/>
		<path class="st0" d="M261.6,36.8V18.3h3.8v18.5H261.6z"/>
		<path class="st0" d="M267.7,21.6v-3.3h13.6v3.3h-4.9v15.2h-3.8V21.6H267.7z"/>
		<path class="st0" d="M281.1,36.8l4.2-18.5h7.1l4.2,18.5h-3.8l-0.7-3.3h-6.5l-0.7,3.3H281.1z M288.2,21.4l-1.9,8.8h5.1l-1.9-8.8
			H288.2z"/>
	</g>
</g>
</svg>
