<?xml version="1.0" encoding="utf-8"?>
<!-- Generator: Adobe Illustrator 24.0.0, SVG Export Plug-In . SVG Version: 6.00 Build 0)  -->
<svg version="1.1" id="Capa_1" xmlns="http://www.w3.org/2000/svg" xmlns:xlink="http://www.w3.org/1999/xlink" x="0px" y="0px"
	 viewBox="0 0 260 50" style="enable-background:new 0 0 260 50;" xml:space="preserve">
<style type="text/css">
	.st0{fill:#1D5B79;}
	.st1{fill:#2EC0BB;}
</style>
<g>
	<rect x="306.7" y="-11.5" class="st0" width="14.6" height="14.6"/>
	<rect x="292.1" y="3.1" class="st1" width="14.6" height="14.6"/>
	<rect x="321.3" y="3.1" class="st1" width="14.6" height="14.6"/>
	<rect x="277.5" y="17.7" class="st0" width="14.6" height="14.6"/>
	<rect x="335.9" y="17.7" class="st0" width="14.6" height="14.6"/>
	<rect x="292.1" y="32.3" class="st1" width="14.6" height="14.6"/>
	<rect x="321.3" y="32.3" class="st1" width="14.6" height="14.6"/>
	<rect x="306.7" y="46.9" class="st0" width="14.6" height="14.6"/>
</g>
<g>
	<g>
		<rect x="24.1" y="5.1" class="st0" width="8" height="8"/>
		<rect x="16.1" y="13" class="st1" width="8" height="8"/>
		<rect x="32" y="13" class="st1" width="8" height="8"/>
		<rect x="8.1" y="21" class="st0" width="8" height="8"/>
		<rect x="40" y="21" class="st0" width="8" height="8"/>
		<rect x="16.1" y="29" class="st1" width="8" height="8"/>
		<rect x="32" y="29" class="st1" width="8" height="8"/>
		<rect x="24.1" y="37" class="st0" width="8" height="8"/>
	</g>
	<g>
		<path class="st1" d="M59.9,31.1V15.3h9.5v1.6h-7.7V23h6.5v1.6h-6.5v6.5H59.9z"/>
		<path class="st1" d="M69.8,31.1l4.3-15.8H78l4.3,15.8h-1.7L79.4,27h-6.8l-1.1,4.1H69.8z M75.4,16.8L73,25.5h6l-2.4-8.7H75.4z"/>
		<path class="st1" d="M86.5,25.1v6.1h-1.8V15.3h5.8c1.7,0,2.9,0.4,3.8,1.2c0.8,0.8,1.3,2,1.3,3.6c0,2.4-1,4-2.9,4.6l3,6.4h-1.9
			L91,25.1H86.5z M90.7,23.5c2.1,0,3.2-1.1,3.2-3.3s-1.1-3.3-3.2-3.3h-4.1v6.6H90.7z"/>
		<path class="st1" d="M98.9,31.1V15.3h3.2l4.5,13.4l4.5-13.4h3.2v15.8h-1.8V17.2h-0.3l-4.6,13.4h-2l-4.6-13.4h-0.3v13.9H98.9z"/>
		<path class="st1" d="M116.6,31.1l4.3-15.8h3.8l4.3,15.8h-1.7l-1.1-4.1h-6.8l-1.1,4.1H116.6z M122.3,16.8l-2.4,8.7h6l-2.4-8.7
			H122.3z"/>
		<path class="st1" d="M140.9,30.9c-1.6,0.3-3,0.5-4.2,0.5s-2.3-0.2-3-0.5c-0.8-0.3-1.4-0.9-1.8-1.6s-0.7-1.6-0.9-2.5
			s-0.2-2.1-0.2-3.5s0.1-2.6,0.2-3.5c0.2-1,0.4-1.8,0.9-2.5c0.4-0.7,1-1.3,1.8-1.6s1.8-0.5,3-0.5s2.6,0.2,4.3,0.5l-0.1,1.5
			c-1.5-0.3-2.9-0.4-4.1-0.4c-1.7,0-2.8,0.5-3.3,1.5c-0.5,1-0.8,2.7-0.8,5.1c0,1.2,0.1,2.2,0.1,2.9c0.1,0.7,0.3,1.4,0.6,2
			c0.3,0.6,0.7,1,1.3,1.3c0.6,0.3,1.4,0.4,2.4,0.4c1.1,0,2.3-0.1,3.8-0.4L140.9,30.9z"/>
		<path class="st1" d="M143.8,31.1V15.3h1.8v15.8H143.8z"/>
		<path class="st1" d="M148,31.1l4.3-15.8h3.8l4.3,15.8h-1.7l-1.1-4.1h-6.8l-1.1,4.1H148z M153.7,16.8l-2.4,8.7h6l-2.4-8.7H153.7z"
			/>
		<path class="st0" d="M167,18.3v-2.7h10.3v2.7l-6.5,9.6v0.4h6.5v2.7H167v-2.7l6.5-9.7v-0.4H167z"/>
		<path class="st0" d="M183,25.9c0,1.8,0.9,2.7,2.8,2.7s2.8-0.9,2.8-2.7V15.6h3.2v10.3c0,1.9-0.5,3.3-1.5,4.2
			c-1,0.9-2.5,1.3-4.4,1.3c-2,0-3.5-0.4-4.4-1.3c-1-0.9-1.5-2.3-1.5-4.2V15.6h3.2V25.9z"/>
		<path class="st0" d="M203.7,31.1h-8.8V15.6h3.2v12.7h5.7V31.1z"/>
		<path class="st0" d="M205.7,31.1V15.6h5.4l2.7,11.3l2.7-11.3h5.4v15.5h-3.2v-12h-0.3l-3,11.3h-3.2l-3-11.3h-0.3v12H205.7z"/>
		<path class="st0" d="M225.2,31.1V15.6h3.2v15.5H225.2z"/>
		<path class="st0" d="M230.4,18.4v-2.8h11.4v2.8h-4.1v12.7h-3.2V18.4H230.4z"/>
		<path class="st0" d="M241.6,31.1l3.5-15.5h6l3.5,15.5h-3.2l-0.6-2.8h-5.4l-0.6,2.8H241.6z M247.6,18.2l-1.6,7.4h4.2l-1.6-7.4
			H247.6z"/>
	</g>
</g>
</svg>
