<?xml version="1.0" encoding="utf-8"?>
<!-- Generator: Adobe Illustrator 24.0.0, SVG Export Plug-In . SVG Version: 6.00 Build 0)  -->
<svg version="1.1" id="Capa_1" xmlns="http://www.w3.org/2000/svg" xmlns:xlink="http://www.w3.org/1999/xlink" x="0px" y="0px"
	 viewBox="0 0 260 80" style="enable-background:new 0 0 260 80;" xml:space="preserve">
<style type="text/css">
	.st0{fill:#2EC0BB;}
	.st1{fill:#1D5B79;}
</style>
<g>
	<g>
		<path class="st0" d="M68.4,48.5v-17h10v1.4h-8.5v7h7.2v1.3h-7.2v7.3H68.4z"/>
		<path class="st0" d="M78.8,48.5l4.9-17h3.5l4.9,17h-1.5l-1.4-4.7h-7.6l-1.3,4.7H78.8z M84.8,32.8l-2.8,9.6h6.8l-2.8-9.6H84.8z"/>
		<path class="st0" d="M96.4,41.8v6.7h-1.5v-17h6.2c1.8,0,3.1,0.4,4,1.2c0.9,0.8,1.3,2.1,1.3,3.8c0,2.7-1.1,4.4-3.3,5l3.5,7h-1.7
			l-3.4-6.7H96.4z M104.8,36.6c0-1.3-0.3-2.2-0.9-2.8c-0.6-0.6-1.5-0.9-2.8-0.9h-4.7v7.6h4.7C103.6,40.4,104.8,39.1,104.8,36.6z"/>
		<path class="st0" d="M109.9,48.5v-17h2.8l5.3,14.9l5.2-14.9h2.8v17h-1.5V33.1h-0.3l-5.3,14.9h-1.8l-5.3-14.9h-0.3v15.4H109.9z"/>
		<path class="st0" d="M128.8,48.5l4.9-17h3.5l4.9,17h-1.5l-1.4-4.7h-7.6l-1.3,4.7H128.8z M134.8,32.8l-2.8,9.6h6.8l-2.8-9.6H134.8z
			"/>
		<path class="st0" d="M154.7,48.2c-1.7,0.3-3.1,0.5-4.3,0.5c-1.2,0-2.1-0.1-2.9-0.4c-0.7-0.3-1.3-0.6-1.8-1.1
			c-0.5-0.5-0.8-1.1-1.1-1.8c-0.5-1.3-0.7-3.2-0.7-5.5c0-3.7,0.6-6.1,1.8-7.3c1-1,2.4-1.5,4.4-1.5c1.4,0,2.9,0.2,4.6,0.5l-0.1,1.3
			c-1.7-0.3-3.1-0.5-4.1-0.5c-1,0-1.8,0.1-2.4,0.3s-1,0.5-1.4,0.9c-0.4,0.4-0.6,0.9-0.8,1.5c-0.3,1.1-0.5,2.5-0.5,4.2
			c0,1.7,0.1,2.9,0.2,3.7c0.1,0.8,0.3,1.6,0.7,2.2c0.3,0.7,0.8,1.1,1.4,1.4c0.6,0.3,1.5,0.4,2.6,0.4c1.1,0,2.5-0.2,4.2-0.5
			L154.7,48.2z"/>
		<path class="st0" d="M157.9,48.5v-17h1.5v17H157.9z"/>
		<path class="st0" d="M162.1,48.5l4.9-17h3.5l4.9,17h-1.5l-1.4-4.7H165l-1.3,4.7H162.1z M168.1,32.8l-2.8,9.6h6.8l-2.8-9.6H168.1z"
			/>
		<path class="st1" d="M182.5,34.1v-2.4h11v2.6l-7.8,11.3v0.5h7.8v2.4h-11v-2.6l7.8-11.3v-0.5H182.5z"/>
		<path class="st1" d="M199,43.1c0,2.2,1.1,3.3,3.4,3.3c2.3,0,3.4-1.1,3.4-3.3V31.7h2.7v11.4c0,2-0.5,3.4-1.6,4.3
			c-1,0.9-2.6,1.4-4.6,1.4c-2,0-3.6-0.5-4.6-1.4c-1-0.9-1.5-2.3-1.5-4.3V31.7h2.7V43.1z"/>
		<path class="st1" d="M221.7,48.5h-9.4V31.7h2.7v14.3h6.7V48.5z"/>
		<path class="st1" d="M223.9,48.5V31.7h4.7l3.7,13.1l3.7-13.1h4.7v16.8h-2.7V34.7h-0.4l-4,13.1H231l-4-13.1h-0.4v13.7H223.9z"/>
		<path class="st1" d="M243.3,48.5l4.1-16.8h5.4l4.2,16.8h-2.7l-0.9-3.6h-6.4l-0.9,3.6H243.3z M249.5,34l-2.1,8.5h5.4l-2.1-8.5
			H249.5z"/>
	</g>
	<g>
		<rect x="23" y="14.9" class="st1" width="10" height="10"/>
		<rect x="13" y="25" class="st0" width="10" height="10"/>
		<rect x="33.1" y="25" class="st0" width="10" height="10"/>
		<rect x="3" y="35" class="st1" width="10" height="10"/>
		<rect x="43.1" y="35" class="st1" width="10" height="10"/>
		<rect x="13" y="45" class="st0" width="10" height="10"/>
		<rect x="33.1" y="45" class="st0" width="10" height="10"/>
		<rect x="23" y="55" class="st1" width="10" height="10"/>
	</g>
</g>
</svg>
