<?xml version="1.0" encoding="utf-8"?>
<!-- Generator: Adobe Illustrator 24.0.0, SVG Export Plug-In . SVG Version: 6.00 Build 0)  -->
<svg version="1.1" id="Capa_1" xmlns="http://www.w3.org/2000/svg" xmlns:xlink="http://www.w3.org/1999/xlink" x="0px" y="0px"
	 viewBox="0 0 260 80" style="enable-background:new 0 0 260 80;" xml:space="preserve">
<style type="text/css">
	.st0{fill:#2EC0BB;}
	.st1{fill:#1D5B79;}
</style>
<g>
	<g>
		<path class="st0" d="M75.9,47.5V32.5h8.8v1.2h-7.5v6.2h6.4v1.2h-6.4v6.4H75.9z"/>
		<path class="st0" d="M85.1,47.5l4.3-14.9h3.1l4.3,14.9h-1.3l-1.2-4.1h-6.7l-1.2,4.1H85.1z M90.3,33.7l-2.4,8.5h6l-2.4-8.5H90.3z"
			/>
		<path class="st0" d="M100.5,41.6v5.9h-1.3V32.5h5.5c1.6,0,2.7,0.4,3.5,1.1c0.8,0.7,1.1,1.8,1.1,3.4c0,2.4-1,3.8-2.9,4.4l3.1,6.1
			H108l-2.9-5.9H100.5z M107.9,37c0-1.1-0.3-1.9-0.8-2.5c-0.5-0.5-1.4-0.8-2.5-0.8h-4.1v6.7h4.1C106.8,40.4,107.9,39.2,107.9,37z"/>
		<path class="st0" d="M112.4,47.5V32.5h2.5l4.6,13.1l4.6-13.1h2.5v14.9h-1.3V33.9h-0.3L120.3,47h-1.6L114,33.9h-0.3v13.6H112.4z"/>
		<path class="st0" d="M129,47.5l4.3-14.9h3.1l4.3,14.9h-1.3l-1.2-4.1h-6.7l-1.2,4.1H129z M134.2,33.7l-2.4,8.5h6l-2.4-8.5H134.2z"
			/>
		<path class="st0" d="M151.7,47.2c-1.5,0.3-2.7,0.5-3.8,0.5c-1,0-1.9-0.1-2.5-0.3c-0.6-0.2-1.2-0.5-1.6-0.9s-0.7-0.9-0.9-1.6
			c-0.4-1.2-0.6-2.8-0.6-4.8c0-3.2,0.5-5.4,1.5-6.4c0.8-0.9,2.1-1.3,3.9-1.3c1.2,0,2.5,0.2,4,0.5l-0.1,1.2c-1.5-0.3-2.7-0.4-3.6-0.4
			s-1.6,0.1-2.1,0.3s-0.9,0.5-1.2,0.8c-0.3,0.3-0.5,0.8-0.7,1.3c-0.3,1-0.4,2.2-0.4,3.7c0,1.5,0,2.6,0.2,3.3c0.1,0.7,0.3,1.4,0.6,2
			c0.3,0.6,0.7,1,1.3,1.3c0.6,0.3,1.3,0.4,2.3,0.4c1,0,2.2-0.1,3.7-0.4L151.7,47.2z"/>
		<path class="st0" d="M154.5,47.5V32.5h1.3v14.9H154.5z"/>
		<path class="st0" d="M158.2,47.5l4.3-14.9h3.1l4.3,14.9h-1.3l-1.2-4.1h-6.7l-1.2,4.1H158.2z M163.5,33.7l-2.4,8.5h6l-2.4-8.5
			H163.5z"/>
		<path class="st1" d="M176.1,34.8v-2.1h9.7V35l-6.8,9.9v0.4h6.8v2.1h-9.7v-2.3l6.8-9.9v-0.4H176.1z"/>
		<path class="st1" d="M190.6,42.7c0,1.9,1,2.9,3,2.9s3-1,3-2.9v-10h2.4v10c0,1.7-0.5,3-1.4,3.8c-0.9,0.8-2.3,1.2-4.1,1.2
			c-1.8,0-3.1-0.4-4-1.2c-0.9-0.8-1.4-2.1-1.4-3.8v-10h2.4V42.7z"/>
		<path class="st1" d="M210.5,47.5h-8.2V32.7h2.4v12.6h5.9V47.5z"/>
		<path class="st1" d="M212.5,47.5V32.7h4.1l3.3,11.5l3.3-11.5h4.2v14.7H225V35.4h-0.3l-3.5,11.5h-2.5l-3.5-11.5h-0.3v12.1H212.5z"
			/>
		<path class="st1" d="M229.5,47.5l3.6-14.7h4.7l3.7,14.7h-2.4l-0.8-3.2h-5.6l-0.8,3.2H229.5z M234.9,34.7l-1.8,7.5h4.7l-1.8-7.5
			H234.9z"/>
	</g>
	<g>
		<rect x="36.1" y="18" class="st1" width="8.8" height="8.8"/>
		<rect x="27.3" y="26.8" class="st0" width="8.8" height="8.8"/>
		<rect x="44.9" y="26.8" class="st0" width="8.8" height="8.8"/>
		<rect x="18.5" y="35.6" class="st1" width="8.8" height="8.8"/>
		<rect x="53.7" y="35.6" class="st1" width="8.8" height="8.8"/>
		<rect x="27.3" y="44.4" class="st0" width="8.8" height="8.8"/>
		<rect x="44.9" y="44.4" class="st0" width="8.8" height="8.8"/>
		<rect x="36.1" y="53.2" class="st1" width="8.8" height="8.8"/>
	</g>
</g>
</svg>
